<svg width="36" height="36" viewBox="0 0 36 36" fill="none" xmlns="http://www.w3.org/2000/svg">
<circle cx="18" cy="18" r="18" fill="#F0F0F0"/>
<g clip-path="url(#clip0_1_26)">
<path d="M13.8975 6H13.1578C11.4248 6 10.0194 7.40225 10.0178 9.13304L10.0013 27.1103C10.0005 27.9817 10.7077 28.6886 11.5803 28.6886H12.2447C12.7498 28.6886 13.1593 27.7753 13.1593 27.7753V27.4431L13.2216 26.7996L13.3671 25.9693L13.5334 25.3466L13.7828 24.537L14.053 23.852L14.3648 23.167L14.926 22.1706L15.3417 21.5271L15.9653 20.6968L16.3347 20.275C16.4762 20.1136 16.63 19.9633 16.7947 19.8256L17.441 19.2852L18.1269 18.7455L18.9577 18.1991C18.9718 18.1898 18.984 18.1778 18.9934 18.1637C19.0316 18.1064 19.0169 18.029 18.9602 17.9898L16.2985 16.1465C16.246 16.1102 16.2147 16.0504 16.2147 15.9865C16.2147 15.9206 16.2481 15.8592 16.3034 15.8233L16.9506 15.4031C17.0129 15.3627 17.0856 15.3412 17.1599 15.3412C17.2083 15.3412 17.2563 15.3503 17.3012 15.3681L18.8681 15.9871C19.0304 16.0512 19.213 16.0391 19.3654 15.9541L19.4056 15.9316C19.6463 15.7973 19.95 15.8693 20.1046 16.0975L20.2574 16.3231C20.2887 16.3693 20.2882 16.43 20.2562 16.4757C20.2081 16.5443 20.2338 16.6397 20.3099 16.675L20.7639 16.8851C20.9226 16.9585 21.1066 16.9528 21.2604 16.8696L21.8507 16.5503C21.9591 16.4917 22.0731 16.4437 22.1909 16.4072L22.4989 16.3117C22.5769 16.2876 22.6581 16.2753 22.7397 16.2753H23.4484C23.5055 16.2753 23.5519 16.3215 23.5519 16.3786C23.5519 16.3926 23.549 16.4065 23.5435 16.4193L23.4455 16.6476C23.392 16.7723 23.3195 16.8879 23.2306 16.9904L23.0296 17.222C22.8933 17.379 22.7375 17.5179 22.5659 17.6354L21.9071 18.0862C21.7761 18.1758 21.6878 18.3152 21.6629 18.4718L21.5807 18.9879C21.568 19.0677 21.6297 19.1399 21.7106 19.1399C21.7568 19.1399 21.7997 19.1641 21.8234 19.2037L21.9405 19.3985C22.0946 19.6551 22.007 19.9881 21.7464 20.1358L21.7017 20.1611C21.5445 20.2502 21.4376 20.4069 21.412 20.5856L21.2377 21.8044C21.1897 22.1401 20.9888 22.4347 20.6935 22.6022L20.3176 22.8155C20.2729 22.8409 20.2192 22.8452 20.171 22.8271C20.1149 22.8061 20.0736 22.7576 20.0618 22.6989L20.0392 22.5857L19.8937 20.4269L19.8532 19.6998C19.8525 19.6863 19.8508 19.673 19.8481 19.6598C19.8095 19.4671 19.5915 19.3708 19.4228 19.4719L19.1928 19.6097C19.1613 19.6286 19.1321 19.651 19.1058 19.6766L18.5687 20.1996C18.3992 20.3647 18.2441 20.5439 18.1052 20.7353L17.9787 20.9095C17.8009 21.1544 17.6504 21.418 17.53 21.6956L17.441 21.9007L17.1916 22.7726L17.1338 23.0107C17.0617 23.3077 17.0226 23.6118 17.0174 23.9173L17.0127 24.1856C17.0073 24.5018 17.038 24.8177 17.1044 25.127L17.1292 25.2428L17.1745 25.4621C17.2411 25.7852 17.346 26.0993 17.4871 26.3977L17.6281 26.6958L17.8489 27.0424C17.9923 27.2675 18.1603 27.4804 18.3452 27.6729C18.4892 27.8226 18.6466 27.9628 18.8123 28.0881C19.1022 28.3075 19.4211 28.4859 19.7599 28.6183L19.8821 28.666C20.0973 28.7502 20.3191 28.8162 20.5453 28.8635L20.678 28.8912C20.958 28.9497 21.2434 28.9792 21.5296 28.9792H21.5611C21.8757 28.9792 22.1893 28.9436 22.4958 28.8729L22.575 28.8547L22.9731 28.7638C23.1923 28.7138 23.4071 28.6461 23.6153 28.5613L23.8636 28.4603L24.4456 28.1489L24.8821 27.8583L25.1108 27.6895C25.2768 27.5669 25.4335 27.4322 25.5794 27.2865L25.7541 27.112C25.8931 26.9731 26.0222 26.8245 26.1402 26.6674L26.4618 26.2392L26.8359 25.6164L27.1061 25.0975L27.3556 24.4332L27.6258 23.5614L27.792 22.8348L27.9375 21.963L27.9999 21.0081V20.4684L27.9791 18.7455L27.8752 18.0397L27.6881 17.2509L27.5767 16.8059C27.5263 16.6047 27.4609 16.4075 27.3811 16.216L27.1893 15.7563L26.9273 15.2456C26.8112 15.0192 26.6745 14.8039 26.5189 14.6024L26.1916 14.1787L25.5888 13.556L25.0486 13.13C24.8824 12.999 24.7064 12.8809 24.5222 12.7766L24.1754 12.5803L23.4508 12.2823C23.2276 12.1906 22.9969 12.1184 22.7611 12.0666L22.4097 11.9893C22.1877 11.9406 21.962 11.9101 21.735 11.8981L21.2863 11.8745H20.5755C20.3293 11.8745 20.0835 11.8964 19.8412 11.9399L19.7034 11.9646C19.498 12.0014 19.2956 12.0536 19.0981 12.1207L18.7626 12.2348C18.5332 12.3128 18.3112 12.4106 18.0989 12.5272L18.0022 12.5803L17.7029 12.7453C17.501 12.8565 17.3086 12.9844 17.1279 13.1276L16.7967 13.3899C16.6057 13.5647 16.2978 13.4294 16.2978 13.1707V8.39719C16.2978 7.07326 15.2231 6 13.8975 6Z" fill="#03A7EE"/>
<path d="M16.2979 6H10V10.1516H16.2979V6Z" fill="#02A9EF"/>
<path d="M13.1594 10.1516H10V28.7094H13.1594V10.1516Z" fill="#02A9EF"/>
</g>
<defs>
<clipPath id="clip0_1_26">
<rect width="18" height="23" fill="white" transform="translate(10 6)"/>
</clipPath>
</defs>
</svg>
