<svg width="433" height="554" viewBox="0 0 433 554" fill="none" xmlns="http://www.w3.org/2000/svg">
<g clip-path="url(#clip0_1_11)">
<path d="M93.759 0H75.9655C34.2759 0 0.469122 33.7759 0.43098 75.4654L0.0348063 508.483C0.0156015 529.473 17.0266 546.5 38.0174 546.5H54C66.1503 546.5 76 524.5 76 524.5V516.5L77.5 501L81 481L85 466L91 446.5L97.5 430L105 413.5L118.5 389.5L128.5 374L143.5 354L152.388 343.842C155.791 339.953 159.49 336.334 163.452 333.017L179 320L195.5 307L215.484 293.84C215.825 293.616 216.117 293.325 216.343 292.986C217.263 291.606 216.908 289.743 215.545 288.797L151.517 244.399C150.254 243.523 149.5 242.083 149.5 240.545C149.5 238.958 150.303 237.478 151.634 236.613L167.204 226.493C168.702 225.518 170.451 225 172.239 225C173.402 225 174.556 225.22 175.638 225.648L213.329 240.559C217.234 242.104 221.627 241.811 225.293 239.763L226.259 239.223C232.05 235.987 239.356 237.722 243.074 243.217L246.75 248.652C247.503 249.765 247.491 251.227 246.721 252.328C245.563 253.981 246.182 256.279 248.013 257.128L258.934 262.189C262.751 263.958 267.179 263.82 270.878 261.816L285.077 254.125C287.686 252.712 290.427 251.557 293.261 250.678L300.671 248.378C302.546 247.796 304.499 247.5 306.462 247.5H323.511C324.886 247.5 326 248.614 326 249.989C326 250.326 325.932 250.66 325.799 250.97L323.442 256.468C322.155 259.471 320.411 262.257 318.271 264.726L313.437 270.303C310.159 274.085 306.41 277.432 302.281 280.261L286.434 291.119C283.284 293.277 281.16 296.636 280.56 300.407L278.583 312.838C278.277 314.76 279.762 316.5 281.708 316.5C282.82 316.5 283.85 317.083 284.422 318.037L287.237 322.729C290.946 328.909 288.837 336.93 282.569 340.488L281.493 341.099C277.713 343.244 275.14 347.019 274.525 351.322L270.331 380.68C269.176 388.766 264.343 395.862 257.241 399.897L248.198 405.035C247.122 405.647 245.83 405.749 244.672 405.314C243.321 404.808 242.328 403.64 242.045 402.226L241.5 399.5L238 347.5L237.027 329.986C237.009 329.662 236.968 329.341 236.905 329.023C235.976 324.382 230.731 322.062 226.672 324.497L221.14 327.816C220.382 328.271 219.681 328.811 219.048 329.428L206.128 342.026C202.05 346.001 198.319 350.318 194.977 354.929L191.935 359.124C187.658 365.024 184.038 371.373 181.141 378.06L179 383L173 404L171.609 409.737C169.875 416.89 168.936 424.214 168.809 431.573L168.698 438.035C168.566 445.653 169.306 453.262 170.903 460.712L171.5 463.5L172.588 468.782C174.19 476.566 176.715 484.132 180.108 491.318L183.5 498.5L188.812 506.848C192.262 512.269 196.302 517.398 200.752 522.033C204.214 525.64 208.002 529.017 211.987 532.036C218.962 537.32 226.633 541.617 234.782 544.806L237.722 545.956C242.898 547.982 248.235 549.572 253.675 550.711L256.867 551.379C263.604 552.789 270.469 553.5 277.353 553.5H278.111C285.679 553.5 293.223 552.641 300.597 550.939L302.5 550.5L312.078 548.311C317.351 547.106 322.517 545.475 327.525 543.434L333.5 541L347.5 533.5L358 526.5L363.502 522.433C367.495 519.482 371.263 516.237 374.774 512.726L378.975 508.525C382.321 505.179 385.425 501.6 388.264 497.815L396 487.5L405 472.5L411.5 460L417.5 444L424 423L428 405.5L431.5 384.5L433 361.5V348.5L432.5 307L430 290L425.5 271L422.82 260.281C421.608 255.434 420.035 250.684 418.114 246.073L413.5 235L407.199 222.699C404.406 217.245 401.117 212.058 397.373 207.206L389.5 197L375 182L362.006 171.741C358.008 168.585 353.774 165.739 349.343 163.228L341 158.5L323.568 151.322C318.199 149.112 312.649 147.373 306.979 146.125L298.525 144.265C293.184 143.09 287.756 142.356 282.295 142.068L271.5 141.5H254.403C248.479 141.5 242.567 142.026 236.737 143.073L233.422 143.668C228.481 144.555 223.614 145.812 218.862 147.43L210.791 150.177C205.274 152.056 199.932 154.412 194.826 157.221L192.5 158.5L185.3 162.473C180.442 165.153 175.815 168.233 171.468 171.681L163.5 178C158.907 182.21 151.5 178.952 151.5 172.721V57.7411C151.5 25.8516 125.648 0 93.759 0Z" fill="#03A7EE"/>
<path d="M151.5 0H0V100H151.5V0Z" fill="#02A9EF"/>
<path d="M76 100H0V547H76V100Z" fill="#02A9EF"/>
</g>
<defs>
<clipPath id="clip0_1_11">
<rect width="433" height="554" fill="white"/>
</clipPath>
</defs>
</svg>
